<?xml version="1.0" encoding="UTF-8"?>
<svg id="Layer_1" data-name="Layer 1" xmlns="http://www.w3.org/2000/svg" viewBox="0 0 854.35 3274.39">
  <defs>
    <style>
      .cls-1 {
        fill: none;
      }

      .cls-1, .cls-2 {
        stroke: #000;
        stroke-miterlimit: 10;
      }

      .cls-2 {
        fill: #2e5e34;
        opacity: .9;
      }
    </style>
  </defs>
  <path class="cls-1" d="m622.88,1771.27c-2.01.05-4.02.08-6.04.09"/>
  <path class="cls-2" d="m884.72,160.16c33.37,1.87,66.73,3.73,100.1,5.6,7.3.41,15.15.35,21.12-11.78,10.89-22.11,8.91-74.37-.78-100.72-9.7-26.35-23.91-32.73-37.21-34.36-44.2-5.42-87.87,27.62-132.06,33.3-32.2,4.14-67.17-4.18-93.75,48.46,10.96,35.86,29.94,35.96,46.47,33.75,30.48-4.07,61.09-6.49,91.46,2,42.1,11.76,85.23,44.17,125.94,10.97,11.77-9.6,24.61-30.51,25.98-65.6,1.12-28.59-6.41-55.32-15.5-67.09-9.09-11.77-19.41-11.83-29.37-11.21-72.24,4.52-144.06,34.4-214.9,75.5-14.77,8.57-30.17,18.53-41.7,46.56,5.63,26.89,18.28,31.28,29.16,32.47,64.26,6.99,128.66,2.91,192.74-12.23"/>
  <path class="cls-2" d="m762.87,1295.26c-39.03,37.76-55.4,148.3-93.12,193.03-13.03,15.45-24.67,78.16-33.74,105.38-13.6,40.8-22.72,209.14-23.62,261.33-9.59,557.84,7.73,873.62-13.5,1429.61,47.74,24.22,46.73-16.03,94.88-34.94,34.06-13.38,68.84-8.97,103.31-4.52,75.73,9.77,151.47,19.55,227.2,29.32,33.45,4.32,67.55,8.49,99.95-11.93,29.48-18.58,61.86-56.44,88.35-20.25-3.95-414.91-7.9-829.81-11.86-1244.72-1.61-169.21-3.59-342.87-30.39-499.46-11.69-68.34-28.76-134.11-54.38-175.13-25.62-41.02-61.04-52.42-87.31-13.81-21.16-92.23-18.36-204.01-15.48-309.05,7.21-262.84,11.24-527.94-4.42-788.65-1.62-26.89-3.6-54.71-10.04-77.06-15.37-53.36-47.69-53.11-74.63-47.22-41.61,9.1-86.33,8.27-127.28,27.83-36.06,17.23-21.13,140.3-21.27,214.13-.4,208.85-2.31,417.69-5.73,626.39-.59,35.9,2.54,330.66-6.91,339.73Z"/>
  <path class="cls-1" d="m795.86,1066.22c-2.36,70.3-5.7,146.23-25.57,198.23-23.67,61.94-11.23,166.11-37.18,222.56-28.96,62.99-63.21,133.81-65.48,227.41-2.98,123.21-2.41,252.13-5.39,375.34-2.43,100.67,18.71,221.62,10.12,320.34-6.17,70.91,11.71,184.32,6.75,255.77-6.38,92.01,2.44,139.92,3.37,233.17,1.2,119.32,6.33,166.77,7.54,286.09.25,24.75,11.66,35.45,20.89,46.54,4.45,5.35-4.97.68,0,0,129.91-17.84,176.12-26.46,304.43-78.4,73.85-29.89,155.52-67.69,219.06,27.4,24.5-453.51,11.95-913.28-.64-1369.59-2.12-77.03-4.45-156-17.79-226.26-27.7-145.9-96.35-221.06-162.07-250.47,28.7-264.4,8.9-542.84,1.69-815.5-4.3-162.78-4.04-326.24.64-488.96-75.36,38.43-150.71,76.86-226.07,115.28,5.65,195.49,11.27,392.92-1.25,586.56-6.92,107.05-19.32,211.56-31.68,315.76-11.39,95.98-23.66,195.83-52.01,268.9-13.55,34.92-30.43,62.68-41.66,102.02-11.24,39.37-15.92,87.09-20.38,133.59-35.74,372.86-71.48,745.73-107.21,1118.59-6.32,65.96-12.69,133.28-10.06,200.66,3.1,79.37-15.64,213.8-.61,284.89,10.73,50.71,57.23,44.2,79.19,65.65,12.29,12,25.97,11.76,39.24,11.2,149.41-6.28,298.57-30.33,447.66-54.38,16.5-2.66,33.55-5.69,48.16-24.25,37.4-47.52,42.46-168.8,42.79-270.29.84-257.8,1.68-515.61,2.52-773.41.72-219.67.94-445.88-33.21-649.72-6.04-36.07-13.37-71.97-25.1-98.8-21.27-48.65-53.35-59.81-76.54-103.14-41.53-77.62-41.35-225.18-39.13-351.33,4.14-234.39,2.21-469.4-5.76-703.23-3.65-107.11-75.06-87.8-108.67-88.89-26.62-.87-58.79-4.2-82.57,29.95-25.48,36.59-30.23,102.52-32.83,168.24-4.76,120.31-8.09,241.05-12.13,361.51-4.37,130.32-8.74,260.64-13.12,390.96Z"/>
  <path class="cls-1" d="m980.6,3114.11c-130.62,67.29-266.01,104.84-401.89,111.46,12.79-488.78,29.64-977.23,50.55-1465.11,4.02-93.76,10.31-196.08,47.62-262.31,30.44-54.03,76.53-73.74,105.12-130.9,26.73-53.41,33.29-130.05,32.59-201.74-.7-71.68-7.45-143.61-2.43-214.74,7.68-108.92,42.51-209.14,43.45-318.91,1.58-184.85-92.7-359.77-59.04-534.56,71.93,24.26,142.6,60.5,210.8,108.11,4.58,189.57,9.15,379.14,13.73,568.72,2.17,89.75,4.33,179.65,2.08,269.39-1.68,66.99-5.8,134.59.29,200.76,6.09,66.17,24.26,132.6,56.77,165.98,19.44,19.96,42.93,27.19,60.12,52.94,30.36,45.51,29.54,127.78,27.51,198.56-14.03,487.77,36.62,978.47,6.02,1463.8-1.52,24.06-3.71,49.93-13.18,67.22-21.34,38.95-56.93,6.4-85.06-14.62-50.85-37.99-109.1-29.47-162.23-3.32-53.13,26.16-103.24,68.89-155.69,99.14-7.34,4.23-15.45,8.18-22.57,2.87-6.07-4.52-10.06-14.82-13.72-24.59-63.39-169.59-129.54-357.49-118.6-560.58,8.87-164.6,67.89-310.64,75.75-475.4,3.78-79.32-4.55-158.63-10-237.63-9.49-137.41-10.31-276.74-2.44-414.47"/>
</svg>